<svg xmlns="http://www.w3.org/2000/svg" width="143" height="39" viewBox="0 0 143 39" fill="none"><path d="M12.7235 6.73958H18.9914L25.6966 0H6V19.7621L12.7235 13.0225V6.73958Z" fill="white"></path><path d="M6.07275 25.4961H6.71048C6.7287 32.1808 12.1585 37.6236 18.8455 37.6054C25.5143 37.5871 30.9441 32.1443 30.9258 25.4413C30.8894 18.7382 25.4778 13.3319 18.8091 13.3319C18.7726 13.3319 18.7726 13.3319 18.7362 13.3319V12.7109C18.7726 12.7109 18.7726 12.7109 18.8091 12.7109C25.824 12.7109 31.5271 18.4277 31.5271 25.4595C31.5271 32.4913 25.824 38.2081 18.8091 38.2081C11.7941 38.2264 6.1092 32.5461 6.07275 25.4961ZM7.36643 26.3362L7.98593 26.2997C8.44145 32.2904 13.6344 36.7652 19.629 36.3086C25.6236 35.852 30.0695 30.6466 29.614 24.6376C29.2495 19.8341 25.8058 15.889 21.1231 14.8296L21.2689 14.2086C27.4639 15.5785 31.3631 21.7153 29.9966 27.907C28.6665 34.1169 22.5079 38.0255 16.331 36.6556C11.4114 35.5963 7.73084 31.3955 7.36643 26.3362ZM8.58722 25.4961H9.20672C9.22494 30.811 13.525 35.1031 18.8273 35.0484C24.1295 35.0301 28.4114 30.7197 28.3567 25.4047C28.3385 20.4916 24.6397 16.3821 19.7748 15.8707L19.8476 15.2497C25.4596 15.8342 29.5411 20.8569 28.958 26.5006C28.3749 32.1443 23.3642 36.2173 17.734 35.6328C12.5593 35.1214 8.60544 30.7379 8.58722 25.4961ZM9.88089 26.1901L10.5004 26.1536C10.8648 30.7379 14.8916 34.1717 19.4832 33.8064C24.0566 33.4411 27.4821 29.4046 27.1177 24.802C26.9173 22.245 25.5507 19.9437 23.4189 18.519L23.7651 18.0076C27.883 20.7473 29.0127 26.3362 26.2613 30.464C23.51 34.5917 17.9527 35.7241 13.8348 32.9662C11.5572 31.432 10.0995 28.9298 9.88089 26.1901ZM11.4661 27.8156L12.0674 27.633C13.2699 31.3589 17.2421 33.4228 20.9773 32.2174C24.6944 31.0119 26.7533 27.0303 25.5507 23.2861C24.6215 20.3455 21.8884 18.3364 18.8091 18.3364H18.7362V17.7154C18.7726 17.7154 18.7726 17.7154 18.8091 17.7154C23.0727 17.7154 26.5164 21.1674 26.5164 25.4413C26.5164 29.7151 23.0727 33.1671 18.8091 33.1671C15.4564 33.1854 12.4682 31.0302 11.4661 27.8156Z" fill="white"></path><path d="M38.9066 6.73958H45.1745L51.8979 0H32.1831V19.7621L38.9066 13.0225V6.73958Z" fill="white"></path><path d="M32.2383 25.4961H32.8578C32.876 32.1808 38.3058 37.6236 44.9928 37.6054C51.6616 37.5871 57.0914 32.1443 57.0731 25.4413C57.0549 18.7565 51.6434 13.3319 44.9746 13.3319C44.9381 13.3319 44.9381 13.3319 44.9017 13.3319V12.7109C44.9381 12.7109 44.9381 12.7109 44.9746 12.7109C51.9896 12.7109 57.6927 18.4277 57.6927 25.4595C57.6927 32.4913 51.9896 38.2081 44.9746 38.2081C37.9778 38.2264 32.2747 32.5461 32.2383 25.4961ZM33.532 26.3362L34.1515 26.2997C34.607 32.2904 39.7999 36.7652 45.7945 36.3086C51.7891 35.852 56.235 30.6466 55.7795 24.6376C55.4151 19.8341 51.9713 15.889 47.2886 14.8296L47.4344 14.2086C53.6294 15.5785 57.5287 21.7153 56.1621 27.907C54.8138 34.1169 48.6734 38.0255 42.4966 36.6556C37.5587 35.5963 33.9328 31.3955 33.532 26.3362ZM34.7527 25.4961H35.3905C35.4087 30.811 39.7088 35.1031 45.011 35.0484C50.3133 35.0301 54.5951 30.7197 54.5405 25.4047C54.5222 20.4916 50.8234 16.3821 45.9585 15.8707L46.0314 15.2497C51.6434 15.8342 55.7248 20.8569 55.1417 26.5006C54.5587 32.126 49.548 36.2173 43.9178 35.6328C38.7249 35.1214 34.771 30.7379 34.7527 25.4961ZM36.0464 26.1901L36.6659 26.1536C37.0303 30.7379 41.0571 34.1717 45.6487 33.8064C50.2404 33.4411 53.6477 29.4046 53.2832 24.802C53.0828 22.245 51.7162 19.9437 49.5844 18.519L49.9306 18.0076C54.0485 20.7473 55.1782 26.3362 52.4269 30.464C49.6937 34.5917 44.1182 35.7241 40.0003 32.9662C37.7409 31.432 36.2833 28.9298 36.0464 26.1901ZM37.6316 27.8156L38.2329 27.633C39.4355 31.3589 43.4076 33.4228 47.1428 32.2174C50.8599 31.0119 52.9188 27.0303 51.7163 23.2861C50.787 20.3455 48.0539 18.3364 44.9746 18.3364H44.9199V17.7154C44.9564 17.7154 44.9564 17.7154 44.9928 17.7154C49.2565 17.7154 52.7002 21.1674 52.7002 25.4413C52.7002 29.7151 49.2565 33.1671 44.9928 33.1671C41.622 33.1854 38.652 31.0302 37.6316 27.8156Z" fill="white"></path><path d="M109.547 32.83C108.872 32.1536 108.61 31.2518 108.61 30.3124C108.572 29.373 108.947 28.4712 109.547 27.7949C110.934 26.4422 113.183 26.4422 114.57 27.7949C115.245 28.4712 115.507 29.373 115.507 30.3124C115.545 31.2518 115.17 32.1536 114.57 32.83C113.108 34.1451 110.896 34.1451 109.547 32.83ZM110.072 28.2082C109.547 28.7718 109.284 29.4858 109.322 30.2749C109.284 31.0264 109.547 31.7779 110.072 32.3415C111.159 33.3936 112.921 33.3936 113.97 32.3415C114.495 31.7779 114.757 31.0639 114.72 30.2749C114.757 29.5233 114.495 28.7718 113.97 28.2082C112.883 27.1561 111.159 27.1561 110.072 28.2082ZM96.7643 32.83C96.0896 32.1536 95.8272 31.2518 95.8272 30.3124C95.7897 29.373 96.1646 28.4712 96.7643 27.7949C98.1513 26.4422 100.4 26.4422 101.787 27.7949C102.462 28.4712 102.725 29.373 102.725 30.3124C102.762 31.2518 102.387 32.1536 101.787 32.83C100.363 34.1451 98.1513 34.1451 96.7643 32.83ZM97.2891 28.2082C96.7643 28.7718 96.5019 29.4858 96.5394 30.2749C96.5019 31.0264 96.7643 31.7779 97.2891 32.3415C98.3762 33.3936 100.138 33.3936 101.225 32.3415C101.75 31.7779 102.012 31.0639 101.975 30.2749C102.012 29.5233 101.75 28.7718 101.225 28.2082C100.138 27.1561 98.3762 27.1561 97.2891 28.2082ZM74.6854 32.83C74.0482 32.1536 73.7483 31.2518 73.7483 30.2749C73.7108 29.3355 74.0482 28.4337 74.6854 27.7197C75.3227 27.0434 76.1849 26.6676 77.122 26.7052C77.8717 26.6676 78.6214 26.8931 79.2212 27.3816C79.8209 27.8325 80.1583 28.5088 80.3082 29.2227H79.596C79.4836 28.6967 79.1837 28.1706 78.7339 27.87C78.284 27.4943 77.6843 27.344 77.1595 27.3816C76.4472 27.344 75.735 27.6446 75.2852 28.1706C74.7979 28.7343 74.5355 29.4858 74.573 30.2373C74.5355 30.9888 74.7979 31.7403 75.2852 32.3039C75.735 32.83 76.4847 33.1306 77.1595 33.093C77.7217 33.093 78.284 32.9427 78.7339 32.6045C79.1837 32.2663 79.4461 31.7779 79.596 31.2518H80.3082C80.1958 31.9657 79.7834 32.6421 79.2212 33.093C78.6214 33.5439 77.9092 33.8069 77.122 33.7694C76.1849 33.8445 75.3227 33.5063 74.6854 32.83ZM133.575 33.2057C133.163 32.7924 132.9 32.2663 132.9 31.6651H133.575C133.575 32.116 133.762 32.5294 134.137 32.83C134.55 33.1306 134.962 33.2433 135.412 33.2433C135.862 33.2809 136.349 33.1306 136.724 32.9051C137.061 32.7172 137.211 32.3415 137.174 31.9657C137.174 31.7027 137.099 31.4773 136.986 31.2518C136.874 31.1015 136.611 30.9136 136.386 30.8385C136.124 30.7258 135.862 30.7258 135.637 30.6506C135.337 30.5755 135.074 30.5379 134.775 30.5003C134.512 30.4252 134.25 30.3876 133.987 30.2373C133.762 30.1246 133.538 29.9367 133.388 29.7112C133.275 29.4106 133.163 29.11 133.2 28.7718C133.2 28.2458 133.425 27.7573 133.837 27.4191C134.287 27.0058 134.924 26.8179 135.524 26.8555C136.162 26.8179 136.761 27.0058 137.249 27.4943C137.661 27.9076 137.923 28.5088 137.886 29.0724H137.211C137.211 28.6591 137.099 28.2458 136.761 27.9452C136.424 27.6446 136.049 27.4943 135.562 27.4943C135.149 27.4567 134.7 27.607 134.325 27.8325C134.025 28.0203 133.875 28.3961 133.875 28.7718C133.875 28.9973 133.95 29.2227 134.1 29.4482C134.212 29.5985 134.475 29.7488 134.7 29.8615C134.962 29.9742 135.224 29.9742 135.449 30.0494C135.749 30.1246 136.012 30.1621 136.311 30.2373C136.574 30.3124 136.836 30.3876 137.061 30.5379C137.286 30.6506 137.511 30.8761 137.661 31.1015C137.773 31.4021 137.886 31.7403 137.886 32.0409C137.886 32.6045 137.661 33.1306 137.174 33.4688C136.649 33.8821 135.974 34.0324 135.337 33.9948C134.775 33.8445 134.1 33.6566 133.575 33.2057ZM117.381 32.83C116.744 32.1536 116.444 31.2518 116.444 30.2749C116.407 29.3355 116.744 28.4337 117.381 27.7197C118.019 27.0434 118.881 26.6676 119.818 26.7052C120.53 26.6676 121.317 26.8931 121.88 27.3816C122.442 27.8325 122.817 28.4337 122.967 29.1476H122.254C122.142 28.6215 121.805 28.2082 121.355 27.87C120.905 27.5319 120.343 27.4191 119.818 27.4191C119.106 27.3816 118.393 27.6822 117.944 28.2082C117.456 28.7718 117.194 29.5233 117.231 30.2749C117.194 31.0264 117.456 31.7779 117.944 32.3791C118.393 32.9051 119.143 33.2057 119.818 33.1682C121.13 33.2433 122.292 32.2288 122.367 30.8385C122.367 30.7633 122.367 30.7258 122.367 30.7258H120.08V30.0494H123.004V33.6942H122.329V32.4166C122.104 32.8676 121.73 33.2057 121.28 33.4688C120.005 34.1075 118.431 33.8445 117.381 32.83ZM127.427 33.6942V26.8931H131.963V27.5694H128.102V29.8991H131.738V30.5755H128.102V33.0554H131.963V33.7318L127.427 33.6942ZM124.803 33.6942V26.8931H125.516V33.6942H124.803ZM104.186 33.6942V26.8931H104.899V33.0179H108.272V33.6942H104.186ZM93.6156 33.6942L89.6796 28.0579V33.6942H88.9674V26.8931H89.6796L93.6156 32.5669V26.8931H94.3278V33.6942H93.6156ZM86.3809 33.6942V30.5755H82.4449V33.6942H81.7327V26.8931H82.4449V29.9367H86.3809V26.8931H87.0931V33.6942H86.3809ZM68.163 33.6942V26.8931H72.6987V27.5694H68.8377V29.8991H72.4738V30.5755H68.8377V33.0554H72.6987V33.7318L68.163 33.6942ZM64.227 33.6942V27.5694H62.0903V26.8931H67.1134V27.5694H64.9767V33.6942H64.227Z" fill="white"></path><path d="M91.9285 23.061L93.6528 18.9277L89.4544 8.81997H90.9913L94.365 17.1993L97.8512 8.81997H99.3506L93.3529 23.061H91.9285ZM129.077 17.6502C128.064 16.5981 127.54 15.1702 127.577 13.7048C127.54 12.2769 128.027 10.849 129.077 9.8345C130.014 8.78239 131.401 8.25634 132.825 8.29392C134.212 8.21877 135.561 8.78239 136.536 9.8345C137.473 10.8866 138.036 12.3145 137.998 13.7048L137.961 14.5314H130.389C130.463 15.1702 130.726 15.7714 131.176 16.1472C131.626 16.5605 132.263 16.7484 132.9 16.7108C133.312 16.7108 133.762 16.5981 134.137 16.4102C134.512 16.2599 134.774 15.9593 134.887 15.5835H137.736C137.436 16.6356 136.799 17.5374 135.936 18.1762C134.999 18.8526 133.912 19.1908 132.825 19.1156C131.438 19.2659 130.051 18.7023 129.077 17.6502ZM131.213 11.0745C130.801 11.4878 130.501 11.9763 130.426 12.5399H135.149C135.037 11.9763 134.774 11.4878 134.399 11.1121C133.462 10.4357 132.15 10.4357 131.213 11.0745ZM84.8812 16.2223V10.06H82.9694V8.85755H84.8812V6.00182H86.3057V8.85755H88.6297V10.06H86.3057V16.1847C86.3057 17.2368 86.7555 17.7629 87.6926 17.7629L88.5923 17.6502V18.9277C88.2174 19.0405 87.88 19.0405 87.5427 19.0405C85.7434 19.0029 84.8812 18.0635 84.8812 16.2223ZM120.642 18.9653L116.481 8.55695H119.48L121.992 15.5835L124.541 8.55695H127.465L123.304 18.9653H120.642ZM73.4482 18.9653V8.85755H74.8726V18.9653H73.4482ZM78.7711 18.9653V10.06H76.8218V8.85755H78.7711V7.20423C78.6961 6.34 78.996 5.51334 79.5583 4.87456C80.158 4.34851 80.9452 4.04791 81.7324 4.08548L82.4072 4.12306V5.40062C82.2572 5.36304 82.0323 5.32547 81.8449 5.36304C81.3951 5.32547 80.9078 5.47577 80.5704 5.77637C80.233 6.1897 80.1206 6.6406 80.158 7.12908V8.85755H82.4447V10.06H80.158V18.9653H78.7711ZM101.15 18.9653V4.87456H110.521V7.54241H104.074V10.5109H110.221V13.1787H104.074V19.0405L101.15 18.9653ZM62.165 18.9653V4.87456H71.1241V6.22728H63.627V11.1121H70.7117V12.4648H63.627V18.9277L62.165 18.9653ZM112.358 18.9653V8.55695H115.169V18.9653H112.358ZM112.508 6.71576C112.171 6.37758 112.021 5.96425 112.058 5.47577C112.058 5.02487 112.171 4.57396 112.508 4.23578C113.183 3.55943 114.27 3.55943 114.982 4.23578C115.319 4.57396 115.432 4.98729 115.432 5.47577C115.469 5.92667 115.319 6.37758 114.982 6.71576C114.307 7.35454 113.258 7.35454 112.508 6.71576ZM73.4482 6.07697C73.2982 5.92667 73.1483 5.62607 73.1858 5.36304C73.1858 5.10001 73.2982 4.83699 73.4482 4.64911C73.6356 4.46123 73.898 4.34851 74.1604 4.34851C74.6852 4.31093 75.1725 4.76184 75.1725 5.28789C75.1725 5.32547 75.1725 5.32547 75.1725 5.36304C75.1725 5.62607 75.06 5.88909 74.8726 6.07697C74.6852 6.22727 74.4228 6.34 74.1604 6.34C73.8605 6.34 73.5981 6.26485 73.4482 6.07697Z" fill="white"></path></svg>